<svg width="232" height="32" viewBox="0 0 232 32" fill="none" xmlns="http://www.w3.org/2000/svg">
            <path d="M17.376 0.48C21.4933 0.48 24.64 1.568 26.816 3.744C29.0133 5.89867 30.112 9.024 30.112 13.12C30.112 15.9147 29.6427 18.464 28.704 20.768C27.7653 23.0507 26.464 24.8533 24.8 26.176C23.136 27.4987 21.2587 28.16 19.168 28.16C18.08 28.16 17.1093 28.0533 16.256 27.84C15.424 27.6267 14.6347 27.328 13.888 26.944C13.1413 26.5387 12.1707 25.952 10.976 25.184C10.4427 26.272 9.67467 27.0933 8.672 27.648C7.66933 28.2027 6.47467 28.48 5.088 28.48C3.50933 28.48 2.34667 28.1387 1.6 27.456C0.874667 26.752 0.512 25.792 0.512 24.576C0.512 23.2747 0.96 22.2187 1.856 21.408C2.752 20.576 3.95733 20.16 5.472 20.16C6.32533 20.16 7.232 20.2987 8.192 20.576C8.46933 17.952 8.832 15.808 9.28 14.144C9.74933 12.4587 10.4107 10.752 11.264 9.024C11.5627 8.40533 11.9147 7.95733 12.32 7.68C12.7253 7.40267 13.2267 7.264 13.824 7.264C14.4 7.264 14.848 7.38133 15.168 7.616C15.488 7.85067 15.648 8.16 15.648 8.544C15.648 8.82133 15.5733 9.09867 15.424 9.376C14.9333 10.272 14.4533 11.4667 13.984 12.96C13.536 14.4533 13.184 15.904 12.928 17.312L12.736 18.4C12.48 19.9147 12.2347 21.1627 12 22.144C13.1307 22.7627 14.2507 23.2533 15.36 23.616C16.4907 23.9573 17.504 24.128 18.4 24.128C19.808 24.128 21.0347 23.6693 22.08 22.752C23.1467 21.8347 23.968 20.544 24.544 18.88C25.12 17.216 25.408 15.2747 25.408 13.056C25.408 10.048 24.736 7.808 23.392 6.336C22.048 4.864 20.0107 4.128 17.28 4.128C15.5733 4.128 13.856 4.384 12.128 4.896C10.4213 5.408 8.85333 6.12267 7.424 7.04C7.104 7.232 6.816 7.328 6.56 7.328C6.19733 7.328 5.89867 7.18933 5.664 6.912C5.45067 6.61333 5.344 6.21867 5.344 5.728C5.344 5.216 5.42933 4.8 5.6 4.48C5.77067 4.16 6.05867 3.85066 6.464 3.552C7.82933" fill="#E0E257"/>
        </svg>