<svg width="167" height="501" viewBox="0 0 167 501" fill="none" xmlns="http://www.w3.org/2000/svg">
<path d="M92.4339 499.548C101.116 499.27 109.798 498.944 118.436 498.247C122.626 497.922 126.946 497.457 130.747 495.506C132.82 494.437 134.937 492.067 133.986 489.836C133.209 487.978 130.876 487.699 128.932 487.699C97.6172 487.653 66.2586 487.606 34.9865 489.836C29.3281 490.255 22.8924 491.184 19.6528 496.202C15.679 502.429 27.5574 500.664 30.0194 500.71C36.8872 500.803 43.755 500.803 50.5796 500.71C64.5743 500.524 78.4824 500.059 92.4339 499.548Z" fill="url(#paint0_linear_1_3563)"/>
<path d="M92.4339 499.548C101.116 499.27 109.798 498.944 118.436 498.247C122.626 497.922 126.946 497.457 130.747 495.506C132.82 494.437 134.937 492.067 133.986 489.836C133.209 487.978 130.876 487.699 128.932 487.699C97.6172 487.653 66.2586 487.606 34.9865 489.836C29.3281 490.255 22.8924 491.184 19.6528 496.202C15.679 502.429 27.5574 500.664 30.0194 500.71C36.8872 500.803 43.755 500.803 50.5796 500.71C64.5743 500.524 78.4824 500.059 92.4339 499.548Z" fill="url(#paint1_linear_1_3563)"/>
<path d="M155.843 164.656C156.663 165.445 157.484 166.189 158.521 166.514C159.946 166.932 161.458 166.421 162.84 165.91C163.79 165.585 164.697 165.213 165.647 164.888C165.993 164.748 166.382 164.609 166.598 164.237C166.814 163.865 166.77 163.447 166.727 162.983C165.82 153.596 164.179 144.303 161.76 135.241C157.916 137.147 154.115 139.052 150.27 140.957C148.197 141.979 141.243 144.024 141.113 146.719C140.984 149.461 145.908 153.921 147.506 155.78C150.141 158.893 152.905 161.867 155.843 164.656Z" fill="white"/>
<path d="M157.613 133.522C158.736 133.011 159.946 132.5 161.199 132.686C162.408 132.872 163.617 134.034 163.444 135.335C163.315 136.264 158.736 138.494 157.916 139.006C155.929 140.26 153.899 141.422 151.825 142.537C149.752 143.652 147.636 144.675 145.519 145.651C144.353 146.208 141.805 147.927 140.422 147.416C135.369 145.511 144.18 140.307 145.692 139.377C149.536 137.147 153.553 135.335 157.613 133.522Z" fill="#333333"/>
<path d="M113.038 483.517C111.18 483.656 109.28 483.796 107.466 483.284C105.652 482.773 103.924 481.426 103.362 479.521C102.887 477.894 103.103 475.757 101.808 474.827C101.505 474.595 101.16 474.502 100.771 474.455C100.598 440.395 101.376 420.739 101.16 385.981C102.758 374.411 101.808 363.676 101.548 352.478C100.771 317.116 100.037 281.754 99.2591 246.392C99.1727 241.699 98.9999 236.82 96.8402 232.452C93.3415 225.389 85.5668 221.392 78.267 218.326C56.5839 209.218 32.0499 196.207 26.0891 225.481C24.491 233.242 23.1953 241.048 22.1154 248.948C21.3379 254.57 20.7332 260.425 22.6337 266.001C25.8732 275.481 31.8772 298.761 39.4793 305.638C59.3052 323.575 67.9438 343.835 74.466 367.626C72.4359 375.572 74.8114 386.817 75.7185 392.951C79.9515 422.365 88.6768 449.735 92.953 479.149C91.1388 482.773 90.3612 487.002 90.8795 491.091C90.9659 491.927 91.1386 492.764 91.6569 493.368C92.3912 494.251 93.6007 494.437 94.6805 494.529C97.7473 494.762 100.814 494.855 103.881 494.808C106.256 494.762 108.805 494.53 110.619 492.857C112.995 490.719 113.124 486.909 113.038 483.517Z" fill="#998675"/>
<path d="M87.2078 282.358C81.1175 267.907 58.8297 258.195 37.7944 274.691C25.2251 284.542 34.7709 295.509 37.5352 305.267C40.9043 317.116 43.1503 329.337 44.187 341.744C46.2171 365.675 43.9279 390.489 37.2761 415.349C32.8703 431.891 32.784 450.014 29.7172 466.51C28.0327 475.757 22.6766 488.024 23.9292 497.225C28.6805 497.271 33.4319 497.318 38.14 497.364C42.3298 497.411 46.7787 497.364 50.2774 494.902C53.7761 492.439 55.5037 486.584 52.5665 483.377C49.6725 484.4 46.6058 485.422 43.6254 484.679C30.5378 481.333 47.6425 449.503 50.1477 442.486C60.8165 412.561 71.4852 382.636 79.2169 352.71C84.9184 330.824 95.5874 302.107 87.2078 282.358Z" fill="#998675"/>
<path d="M91.2246 122.835C96.4078 136.543 101.591 150.204 106.774 163.912C108.2 167.676 109.625 171.672 108.934 175.622C107.724 182.639 100.598 186.403 94.1617 187.982C81.4196 168.513 67.9864 149.553 53.9485 131.152C45.9577 120.697 33.5181 96.5339 51.8753 89.2385C72.6946 81.0137 85.0479 106.478 91.2246 122.835Z" fill="#ACB18F"/>
<path d="M137.917 102.017C139.602 99.3221 142.02 100.53 144.137 102.854C138.219 125.902 132.95 149.136 128.328 172.509C126.903 179.758 125.089 187.75 119.344 191.932C116.925 193.698 113.988 194.581 111.094 195.092C105.867 196.068 99.5612 195.557 96.624 190.817C92.4343 184.033 97.6175 177.434 101.764 172.695C106.645 167.165 108.718 163.587 111.742 156.059C118.696 138.68 128.112 117.816 137.917 102.017Z" fill="#ACB18F"/>
<path d="M147.808 100.948C148.283 100.298 148.542 99.5076 148.845 98.7177C149.579 96.7196 150.313 94.6749 151.047 92.6768C151.393 91.7475 151.739 90.8182 151.782 89.8424C151.825 88.8665 151.566 87.7977 150.875 87.1471C150.227 86.5431 149.32 86.4037 148.456 86.5896C147.592 86.7754 146.901 87.2867 146.21 87.8443C144.698 89.0989 143.445 90.7252 142.582 92.5839C141.89 94.0709 141.459 95.6973 140.379 96.859C139.904 97.3702 139.342 97.7883 138.91 98.3924C138.262 99.2753 138.133 100.53 138.521 101.552C139.947 104.944 146.166 103.271 147.808 100.948Z" fill="#F2D6C9"/>
<path d="M114.074 287.191C111.914 237.47 107.12 187.889 100.857 138.494C98.5676 120.372 95.8032 98.8108 78.1802 90.3537C61.8531 82.5007 41.725 80.5027 31.0994 98.1604C25.1387 108.058 23.7995 120.047 22.5469 131.664C15.0312 202.713 7.51568 273.762 0 344.811C8.24997 345.322 106.99 361.074 107.422 354.43C107.422 354.337 107.422 354.244 107.422 354.197C108.07 354.151 108.675 354.011 109.236 353.733C111.439 352.664 112.087 349.829 112.476 347.367C115.37 327.478 114.938 307.265 114.074 287.191Z" fill="#EBEFEB"/>
<path d="M144.483 156.895C144.699 156.384 144.872 155.826 145.174 155.361C145.822 154.385 146.945 154.014 148.068 153.874C149.148 153.735 150.271 153.828 151.351 153.642C154.72 152.991 157.484 149.413 160.853 149.971C161.89 150.157 162.84 150.714 163.704 151.365C164.827 152.248 165.864 153.41 166.166 154.85C166.598 157.127 165.086 159.311 163.704 161.077C162.926 162.053 162.106 163.075 161.069 163.679C160.205 164.19 159.212 164.376 158.218 164.608C155.843 165.212 153.467 166.142 151.567 167.908C150.012 169.348 148.716 171.346 146.772 171.857C143.23 172.787 139.904 168.604 139.516 165.166C139.04 161.634 143.274 159.822 144.483 156.895Z" fill="#F2D6C9"/>
<path d="M146.858 169.116C145.303 165.77 143.748 162.424 142.236 159.079C137.355 159.962 133.684 164.144 130.185 167.861C125.348 173.019 120.121 177.759 114.549 182.034C111.267 184.543 107.509 186.959 103.535 186.309C98.6971 185.519 95.5873 180.454 93.0821 175.9C83.7523 158.753 74.4225 141.56 65.0927 124.414C57.7066 110.845 49.4565 115.817 44.1437 127.992C39.3492 139.098 45.5261 151.597 50.2774 161.634C56.4108 174.599 63.1921 187.192 70.6214 199.413C74.9839 206.569 80.2104 214.096 87.9853 216.002C91.6999 216.931 95.6737 216.42 99.3452 215.258C111.223 211.634 120.64 202.108 129.408 192.721C135.066 186.634 140.681 180.407 146.167 174.134C146.772 173.437 147.419 172.694 147.549 171.718C147.635 170.882 147.247 169.952 146.858 169.116Z" fill="#ACB18F"/>
<path d="M93.9458 21.9529C92.0021 15.7262 88.9354 8.05903 82.6724 6.43266C75.891 4.71336 66.302 9.49955 61.378 14.1463C55.2877 19.8618 51.4865 27.9473 49.37 36.3115C47.0376 45.4192 46.6488 55.549 50.4499 64.0991C54.2509 72.6491 62.9329 79.0617 71.6148 77.6677C77.4459 76.7384 82.4132 72.6027 86.2143 67.7701C95.976 55.3632 98.7403 37.2872 93.9458 21.9529Z" fill="#F2D6C9"/>
<path d="M64.7902 45.3261C62.8465 41.6552 56.9721 41.8412 55.2444 45.605C53.9485 48.3931 58.6135 59.7311 59.3046 63.2162C61.1187 72.4633 51.8753 135.566 54.251 144.721C40.3859 145.046 26.3911 143.419 13.1739 138.866C11.8349 138.401 10.4096 137.843 9.45929 136.682C8.24987 135.148 8.20659 132.918 8.29298 130.92C9.32963 100.994 34.9865 -0.862778 69.4982 0.0201085C73.7311 0.113044 77.9211 1.13534 82.0676 2.2041C84.7888 2.90111 87.5101 3.69113 89.9721 5.17809C94.9826 8.29143 98.0925 14.1928 99.3451 20.2801C100.641 26.3674 100.295 32.687 99.9928 38.8672C99.9064 40.7723 79.2169 38.8206 77.23 38.4953C74.9839 38.1236 70.7941 36.2185 68.548 37.2408C65.9564 38.4025 65.6541 42.8168 64.7902 45.3261Z" fill="#534741"/>
<path opacity="0.19" d="M34.641 241.141C28.6803 239.886 23.2377 236.773 17.9249 233.66C18.7888 230.871 19.6528 228.083 20.4734 225.295C44.8346 234.728 72.5217 233.892 96.3645 223.019C96.7533 227.433 97.0989 231.847 97.4876 236.262C91.0086 237.749 84.4 238.306 77.8346 238.91C68.8503 239.7 59.9091 240.49 50.9248 241.327C45.5256 241.791 39.997 242.256 34.641 241.141Z" fill="white"/>
<defs>
<linearGradient id="paint0_linear_1_3563" x1="18.8749" y1="494.316" x2="134.204" y2="494.316" gradientUnits="userSpaceOnUse">
<stop stop-color="#4D4D4D"/>
<stop offset="1"/>
</linearGradient>
<linearGradient id="paint1_linear_1_3563" x1="18.8749" y1="494.316" x2="134.204" y2="494.316" gradientUnits="userSpaceOnUse">
<stop/>
<stop offset="1"/>
</linearGradient>
</defs>
</svg>
