<svg width="192" height="507" viewBox="0 0 192 507" fill="none" xmlns="http://www.w3.org/2000/svg">
<path d="M108.613 506.273C121.01 506.041 133.45 505.855 145.803 504.6C151.98 503.996 158.199 503.113 164.117 501.208C168.782 499.721 173.663 497.212 175.822 492.519C176.125 491.868 176.384 491.125 176.254 490.381C176.168 489.638 175.736 489.034 175.218 488.523C172.712 485.874 168.825 485.781 165.326 485.827C131.074 486.339 96.8214 487.035 62.6553 490.009C56.5218 490.567 49.5675 491.636 46.0256 497.073C38.294 508.922 64.9011 506.32 69.6956 506.459C82.6969 506.738 95.655 506.505 108.613 506.273Z" fill="url(#paint0_linear_1_3506)"/>
<path d="M108.613 506.273C121.01 506.041 133.45 505.855 145.803 504.6C151.98 503.996 158.199 503.113 164.117 501.208C168.782 499.721 173.663 497.212 175.822 492.519C176.125 491.868 176.384 491.125 176.254 490.381C176.168 489.638 175.736 489.034 175.218 488.523C172.712 485.874 168.825 485.781 165.326 485.827C131.074 486.339 96.8214 487.035 62.6553 490.009C56.5218 490.567 49.5675 491.636 46.0256 497.073C38.294 508.922 64.9011 506.32 69.6956 506.459C82.6969 506.738 95.655 506.505 108.613 506.273Z" fill="url(#paint1_linear_1_3506)"/>
<path d="M21.362 331.461C30.6055 380.345 56.9103 424.025 66.1105 472.956C66.7152 476.162 67.2766 479.461 68.9179 482.156C70.6025 484.851 73.7125 486.849 76.6065 486.013C81.8761 484.479 81.8328 476.58 81.0985 470.772C78.9389 453.439 80.7962 435.828 82.6967 418.449C85.6339 391.358 88.5712 364.268 91.5083 337.131C93.7112 334.668 97.685 335.225 100.104 337.456C102.523 339.64 103.689 342.985 104.639 346.238C108.915 360.689 110.686 375.792 112.5 390.801C116.085 420.865 119.627 450.976 120.059 481.273C122.608 481.459 125.156 481.645 127.705 481.784C138.157 451.766 146.018 420.819 153.405 389.825C157.162 374.119 160.791 358.366 163.166 342.335C166.276 321.285 167.097 299.91 167.745 278.628C167.874 274.306 167.918 269.706 165.628 266.128C163.598 262.968 160.1 261.342 156.731 259.948C127.834 248.006 96.7778 243.591 65.9376 240.989C57.2557 240.245 48.4875 239.688 39.9352 241.361C33.197 242.662 25.8542 245.543 20.8005 250.747C15.099 256.648 16.9562 265.989 16.913 274.12C16.8266 293.312 17.777 312.595 21.362 331.461Z" fill="#666666"/>
<path d="M3.09134 222.959C0.240563 232.253 -2.00533 243.266 3.26428 251.258C5.76951 255.022 9.57043 257.485 13.4147 259.576C35.0114 271.286 59.7181 274.027 83.7769 276.536C105.46 278.813 127.23 281.09 148.999 279.836C159.366 279.231 170.294 277.605 178.371 270.589C186.059 263.944 190.076 253.303 191.156 242.754C192.236 232.206 190.767 221.565 189.256 211.063C187.614 199.539 185.973 188.015 183.165 176.77C178.284 157.207 169.775 138.713 158.372 122.635C149.734 110.507 139.238 99.541 126.366 93.0355C114.185 86.8553 95.6984 84.0207 83.0426 90.6656C70.3869 97.264 58.7678 116.269 50.3019 127.979C29.6985 156.464 13.5874 188.712 3.09134 222.959Z" fill="#FCEE9F"/>
<path d="M123.731 59.2068C123.601 61.6696 123.472 64.1788 122.824 66.5951C121.226 72.3107 116.388 77.4686 109.822 80.2101C103.257 82.9517 95.0933 83.2769 88.3551 80.8606C81.6601 78.4908 76.7362 73.844 72.8055 68.9649C64.5988 58.742 59.8043 46.5676 60.9273 34.486C61.1001 32.6737 61.4457 30.815 62.8711 29.3745C64.9012 27.3299 68.4862 26.8652 71.7257 26.5864C82.3945 25.5641 111.982 18.3152 120.75 23.8448C129.432 29.328 124.163 51.5396 123.731 59.2068Z" fill="#F2D6C9"/>
<path d="M37.5166 24.4956C39.0716 31.6052 47.4942 36.9954 56.5216 38.25C65.5491 39.4582 74.8357 37.1348 82.6969 33.4173C91.0765 29.4211 98.9378 23.6127 108.7 23.2874C110.514 23.2409 112.371 23.3804 113.926 24.0309C115.654 24.7744 116.906 26.1219 117.9 27.4695C123.472 34.9043 124.292 43.9191 124.984 52.5156C127.964 45.0343 130.34 37.4136 132.024 29.6535C133.881 21.1963 134.4 11.2987 126.625 5.39733C120.707 0.889965 111.594 0.100009 103.387 0.88996C91.8541 2.00518 80.7534 5.81557 71.8123 11.6705C68.2705 13.9939 65.0308 16.6426 61.1434 18.6872C57.2992 20.6853 52.6344 22.0793 48.0559 21.4287C43.0454 20.6853 42.0519 17.386 38.5532 15.5273C37.1279 18.1294 36.9119 21.6146 37.5166 24.4956Z" fill="#D1B380"/>
<path d="M141.57 145.637C138.373 139.317 133.665 134.16 129.691 128.398C125.718 122.636 122.392 115.851 122.737 108.695C123.083 101.539 128.309 94.2904 134.961 94.3369C137.725 94.3369 140.317 95.545 142.779 96.8925C150.77 101.214 158.07 107.115 164.074 114.271C166.406 117.059 168.566 120.033 170.077 123.426C172.28 128.398 172.885 134.02 173.446 139.503C174.397 149.169 175.174 158.973 173.231 168.453C170.423 181.975 161.439 194.057 149.561 199.493C147.012 200.655 143.124 202.653 140.706 201.166C138.114 199.586 137.639 195.962 138.201 193.22C139.669 185.692 144.464 179.466 145.544 171.473C146.623 162.691 145.543 153.49 141.57 145.637Z" fill="#F2D6C9"/>
<path d="M127.704 198.517C127.186 198.888 126.668 199.307 126.279 199.818C125.329 201.119 125.286 202.884 125.286 204.557C125.286 207.206 125.545 210.319 127.661 211.667C128.611 212.271 129.778 212.364 130.901 212.41C132.067 212.457 133.233 212.55 134.399 212.596C135.652 212.689 136.991 212.736 138.027 211.992C139.107 211.249 139.583 209.855 140.014 208.554C141.051 205.347 142.088 202.188 143.124 198.981C143.297 198.424 143.47 197.819 143.254 197.308C143.124 196.983 142.822 196.751 142.563 196.565C140.101 194.52 138.935 193.498 135.782 194.242C133.147 194.846 129.605 196.472 127.704 198.517Z" fill="#F2D6C9"/>
<path d="M150.986 483.968C149.431 482.434 147.142 482.202 145.068 482.063C141.958 481.83 138.849 481.551 135.739 481.319C134.4 481.226 132.974 481.087 131.894 480.25C131.462 479.925 131.117 479.46 130.814 478.996C129.821 478.996 128.871 478.949 127.877 478.949C124.292 478.857 120.707 480.297 117.208 481.459C117.943 484.758 118.634 488.011 119.368 491.31C119.498 491.96 119.671 492.657 120.146 493.076C120.621 493.494 121.312 493.54 121.96 493.54C132.326 493.819 142.736 493.401 153.059 492.332C153.146 489.311 153.059 485.919 150.986 483.968Z" fill="black"/>
<path d="M79.4577 480.994C79.6305 485.408 79.7601 490.055 77.8596 494.005C76.5206 496.793 74.2747 498.884 72.0718 500.975C70.9056 502.044 69.7823 503.112 68.6161 504.228C68.3138 504.507 67.9682 504.832 67.5795 504.971C67.1476 505.111 66.6725 505.111 66.2405 505.064C64.2536 504.971 62.3099 505.157 60.323 505.018C58.3793 504.832 56.3493 504.228 54.9671 502.694C53.5849 501.161 53.1529 498.559 54.3623 496.886C55.1398 495.817 56.4355 495.306 57.5586 494.702C60.9709 493.029 63.9083 490.287 65.8952 486.895C67.1478 484.758 68.3139 482.527 70.6031 481.644C71.467 481.319 79.4577 480.343 79.4577 480.994Z" fill="black"/>
<path d="M149.215 189.27C148.74 188.202 148.222 187.133 147.401 186.389C146.321 185.46 144.853 185.413 143.514 185.367C119.455 184.531 95.3528 183.648 71.294 182.811C69.3503 182.718 67.5792 184.066 66.7585 186.111C62.8711 195.962 58.2495 204.233 55.3124 214.502C54.9236 215.896 55.8306 217.29 57.1264 217.337C89.608 217.801 123.774 221.565 156.212 218.638C158.415 218.452 159.754 215.757 158.804 213.48C155.564 205.581 152.411 196.333 149.215 189.27Z" fill="#7F7F7F"/>
<path d="M148.567 186.993C148.092 185.925 147.617 184.856 146.753 184.112C145.673 183.183 144.248 183.137 142.952 183.09C119.325 182.254 95.6986 181.371 72.1149 180.534C70.2144 180.441 68.4433 181.789 67.6659 183.834C63.8216 193.685 59.2864 201.956 56.4356 212.225C56.0469 213.619 56.9539 215.013 58.2065 215.06C90.0833 215.525 123.602 219.289 155.435 216.361C157.595 216.175 158.891 213.48 157.983 211.203C154.83 203.303 151.72 194.057 148.567 186.993Z" fill="#666666"/>
<path d="M144.809 189.084C144.377 188.341 143.945 187.551 143.167 187.04C142.217 186.389 140.921 186.342 139.712 186.296C118.418 185.692 97.1232 185.042 75.8288 184.437C74.1011 184.391 72.5461 185.32 71.8118 186.807C68.3564 193.87 64.2529 199.818 61.7044 207.206C61.3589 208.182 62.1795 209.205 63.3026 209.251C92.0695 209.576 122.305 212.318 150.985 210.18C152.929 210.041 154.139 208.089 153.275 206.463C150.467 200.794 147.66 194.149 144.809 189.084Z" fill="#F0F0F0"/>
<path d="M116.777 191.13C116.647 191.315 116.69 191.548 116.733 191.78C117.597 197.124 118.461 202.561 120.362 207.579C126.063 207.579 131.765 207.579 137.466 207.626C139.28 207.626 141.095 207.625 142.822 207.254C140.922 201.956 138.978 196.659 137.078 191.362C130.555 191.548 124.033 191.408 117.554 190.944C117.252 190.897 116.949 190.897 116.777 191.13Z" fill="#E0C74E"/>
<path d="M109.606 190.571C99.1104 191.175 88.7007 190.989 78.2047 190.571C77.384 190.525 77.384 191.872 78.2047 191.965C88.6575 192.801 99.1536 192.661 109.606 192.104C110.514 192.057 110.557 190.525 109.606 190.571Z" fill="#CACACA"/>
<path d="M110.686 194.893C100.406 194.847 90.126 195.172 79.8891 195.776C79.1116 195.822 79.1116 197.122 79.8891 197.076C90.1691 196.565 100.406 196.426 110.686 196.472C111.636 196.472 111.636 194.893 110.686 194.893Z" fill="#CACACA"/>
<path d="M110.686 200.329C99.8879 199.818 89.0463 199.725 78.2479 199.772C77.4272 199.772 77.4272 201.119 78.2479 201.119C89.0895 201.304 99.8879 201.676 110.686 201.955C111.637 201.955 111.637 200.376 110.686 200.329Z" fill="#CACACA"/>
<path d="M107.792 204.465C98.2029 204.372 88.5708 204.558 78.9386 204.651C78.118 204.651 78.118 205.998 78.9386 205.998C88.5276 206.091 98.1597 206.277 107.792 206.184C108.829 206.184 108.829 204.512 107.792 204.465Z" fill="#CACACA"/>
<path d="M68.0543 198.75C69.8252 198.936 71.6393 199.122 73.4103 198.75C74.8788 198.471 76.3043 197.821 77.5137 196.891C79.4142 195.451 80.8396 193.127 80.9691 190.618C81.0555 188.109 79.5868 185.507 77.3408 184.81C76.3041 184.484 75.2243 184.577 74.1445 184.81C69.3932 185.693 65.0737 188.62 60.2793 188.992C58.5083 189.131 56.5215 188.992 55.2689 190.293C54.5778 191.036 54.2321 192.059 54.0594 193.128C53.8866 194.243 53.8434 195.497 54.3618 196.473C55.3552 198.378 58.2491 197.774 59.9769 197.914C62.6549 198.192 65.3331 198.471 68.0543 198.75Z" fill="#F2D6C9"/>
<path d="M36.523 109.532C28.5754 115.944 22.0966 124.262 15.9199 132.626C10.2183 140.386 4.55985 148.518 1.75227 157.951C-1.05531 167.384 -0.580059 178.49 5.12149 186.25C10.9094 194.103 20.5846 196.984 29.7416 198.889C33.3699 199.632 37.0848 200.329 40.7994 200.051C44.9028 199.772 51.5112 200.608 55.4418 199.214C57.5583 198.471 57.5585 196.287 59.1567 194.614C60.7548 192.941 61.1001 189.317 59.9771 187.272C53.3253 186.807 46.6735 186.064 40.0649 185.042C34.5794 184.205 28.6188 182.858 25.0769 178.304C21.2327 173.378 21.4916 165.804 24.3424 160.135C27.1932 154.466 32.1604 150.423 37.3005 147.124C42.4405 143.825 47.9264 141.083 52.6776 137.18C60.798 130.489 95.0073 103.909 85.2887 92.6638C77.5139 83.8349 43.218 104.095 36.523 109.532Z" fill="#F2D6C9"/>
<path d="M174.613 127.608C175.001 124.959 173.317 122.496 171.762 120.405C168.35 115.851 164.937 111.251 161.482 106.697C159.84 104.513 158.199 102.283 156.169 100.47C152.152 96.846 146.969 95.1267 141.958 93.5468C136.214 91.7346 129.519 90.2011 124.681 93.965C121.355 96.5672 119.843 101.167 119.843 105.582C119.843 109.996 121.182 114.225 122.651 118.361C124.81 124.494 127.143 130.86 130.21 136.529C132.758 141.316 135.609 140.944 139.928 138.853C151.202 133.416 162.346 129.188 174.613 127.608Z" fill="#FCEE9F"/>
<path d="M42.4839 122.171C46.1985 128.537 50.7772 134.253 55.3557 139.922C55.7013 140.386 56.1332 140.851 56.6947 140.851C57.1266 140.851 57.5152 140.572 57.8175 140.293C61.4026 137.32 63.8216 133.091 66.9316 129.559C73.1082 122.589 82.0061 118.5 86.887 110.461C89.6513 105.861 90.8606 100.192 90.2559 94.7552C90.0399 92.85 89.5649 90.8983 88.4419 89.4578C86.8437 87.3667 84.2089 86.5303 81.7037 86.5303C78.1186 86.5303 74.663 87.878 71.3371 89.272C61.8777 93.2218 52.548 97.5897 43.391 102.329C41.1449 103.491 38.8557 104.699 36.6096 105.907C33.6724 107.534 32.9383 107.487 34.8388 110.275C37.56 114.132 40.065 117.989 42.4839 122.171Z" fill="#FCEE9F"/>
<defs>
<linearGradient id="paint0_linear_1_3506" x1="44.7074" y1="496.227" x2="176.339" y2="496.227" gradientUnits="userSpaceOnUse">
<stop stop-color="#4D4D4D"/>
<stop offset="1"/>
</linearGradient>
<linearGradient id="paint1_linear_1_3506" x1="44.7074" y1="496.227" x2="176.339" y2="496.227" gradientUnits="userSpaceOnUse">
<stop/>
<stop offset="1"/>
</linearGradient>
</defs>
</svg>
