<svg width="159" height="517" viewBox="0 0 159 517" fill="none" xmlns="http://www.w3.org/2000/svg">
<path d="M128.043 516.498C136.336 516.498 144.802 516.405 152.706 513.663C153.311 511.665 152.188 509.389 150.547 508.18C148.905 506.972 146.919 506.6 144.932 506.322C138.28 505.392 131.542 505.16 124.803 504.928C98.6713 504.091 72.496 503.255 46.3207 503.069C43.038 503.022 29.3455 503.998 33.233 511.154C35.8246 515.941 47.962 514.268 52.195 514.5C68.3062 515.336 84.4174 515.894 100.572 516.219C109.729 516.405 118.886 516.498 128.043 516.498Z" fill="url(#paint0_linear_1_3534)"/>
<path d="M128.043 516.498C136.336 516.498 144.802 516.405 152.706 513.663C153.311 511.665 152.188 509.389 150.547 508.18C148.905 506.972 146.919 506.6 144.932 506.322C138.28 505.392 131.542 505.16 124.803 504.928C98.6713 504.091 72.496 503.255 46.3207 503.069C43.038 503.022 29.3455 503.998 33.233 511.154C35.8246 515.941 47.962 514.268 52.195 514.5C68.3062 515.336 84.4174 515.894 100.572 516.219C109.729 516.405 118.886 516.498 128.043 516.498Z" fill="url(#paint1_linear_1_3534)"/>
<path d="M149.337 231.882C149.337 231.882 150.805 206.976 108.864 208.742C108.044 208.788 107.266 208.788 106.489 208.834C106.186 209.02 105.927 209.16 105.625 209.346C105.02 211.019 104.502 212.691 104.113 214.411C103.984 214.875 103.897 215.619 103.768 216.316C103.465 219.011 103.552 217.803 103.768 216.316C103.811 215.758 103.897 215.061 103.983 214.178C103.854 215.293 103.638 216.409 103.508 217.478C102.213 227.422 102.515 237.459 101.694 247.403C101.003 255.906 99.4051 264.41 97.6774 272.82C99.3187 272.728 101.176 272.774 102.213 273.192C104.329 274.029 105.323 480.345 101.694 493.17L118.367 493.356C118.41 493.403 150.719 281.51 149.337 231.882Z" fill="#97A8B2"/>
<path d="M103.552 116.038C98.671 115.295 93.4877 118.037 91.1121 122.683C89.6003 125.657 89.2114 129.142 88.8227 132.534C87.4405 144.57 85.6697 156.558 83.5532 168.5C82.1278 176.586 81.955 192.664 71.3294 193.453C67.3555 193.779 63.2523 190.526 59.3217 189.876C52.8858 188.76 46.8387 188.389 40.6188 185.972C35.6083 184.021 32.2825 181.14 28.5247 177.236C26.2786 174.866 23.1254 170.173 20.1019 169.291C17.9422 168.64 15.221 171.335 16.56 173.24C13.882 171.521 10.0378 174.262 9.90824 177.655C9.64908 184.114 21.484 187.784 25.6737 190.573C32.1528 194.94 38.5456 199.541 45.5862 202.794C56.6869 207.905 68.6945 210.786 80.7455 211.018C82.862 211.065 85.1083 210.972 86.9224 209.81C90.8099 207.254 92.8829 201.26 95.8633 197.543C98.5845 194.104 100.053 191.827 101.306 187.366C104.761 175.099 107.742 162.506 109.988 149.913C112.104 139.319 119.404 118.548 103.552 116.038Z" fill="#EADDD0"/>
<path d="M54.6567 305.952C54.9158 313.898 55.434 321.844 55.9092 329.79C56.6435 341.685 57.3778 353.581 58.0688 365.477C58.2848 369.287 58.6304 373.33 60.7901 376.35C61.006 376.676 61.2652 376.954 61.6108 377.094C62.777 377.558 63.6841 375.979 64.0728 374.724C68.6945 359.761 75.5191 345.635 84.2874 332.996C86.5334 329.79 88.9523 326.583 92.1919 324.585C94.6107 323.098 97.3752 322.308 100.14 321.565C105.582 320.078 111.067 318.591 116.51 317.104C119.706 316.221 123.032 315.292 125.537 313.015C127.524 311.203 128.82 308.693 130.073 306.231C136.465 293.824 142.901 281.277 146.141 267.523C148.516 257.486 149.121 247.077 148.948 236.761C148.948 235.739 148.905 234.67 148.559 233.741C148.084 232.44 147.048 231.417 145.968 230.628C141.865 227.7 136.638 227.329 131.714 227.096C113.011 226.213 93.8765 225.795 75.5624 230.488C69.9041 231.929 60.3149 233.416 57.5505 239.875C54.1814 247.774 55.2181 260.042 54.8293 268.592C54.2678 280.999 54.1815 293.498 54.6567 305.952Z" fill="#97A8B2"/>
<path d="M92.883 292.152C82.4301 290.618 71.9343 289.131 61.4814 287.598C60.9631 286.157 63.5547 287.644 63.382 289.131C57.8964 336.203 60.0128 384.018 64.3753 431.369C66.2758 451.768 66.4055 472.26 64.4186 492.613C68.7379 493.124 76.1673 493.821 80.4435 494.333C88.3911 430.904 93.1855 367.29 101.133 303.862C101.522 300.655 101.781 296.938 99.4917 294.615C97.8072 292.895 95.2586 292.477 92.883 292.152Z" fill="#97A8B2"/>
<path d="M79.2769 84.4403C85.5399 84.208 91.9326 79.6541 98.6707 78.1672C96.8998 72.3122 99.0164 65.9926 99.5779 59.8589C100.355 51.5412 98.1956 43.2699 95.9495 35.324C94.1354 28.9114 92.1053 22.2666 87.8291 17.341C86.9652 16.3652 85.9717 15.4358 84.8055 15.1105C83.7689 14.8317 82.6891 15.0176 81.6525 15.157C74.2664 16.3652 53.7496 17.2945 51.8058 26.2163C49.1278 38.4373 56.9457 54.6545 61.3515 65.4814C63.4247 70.5929 65.5412 75.7973 69.1695 79.7471C72.4522 83.418 75.8646 84.5797 79.2769 84.4403Z" fill="#EADDD0"/>
<path d="M150.892 259.345L151.021 259.206C151.108 259.113 151.151 259.02 151.237 258.973C151.41 258.695 151.583 258.462 151.756 258.184C153.958 254.559 155.859 250.749 157.803 246.985C161.431 203.026 156.809 158.65 143.981 115.435C139.964 101.866 135.99 86.9036 120.916 77.61C120.138 77.1454 119.317 76.6806 118.367 76.4947C117.114 76.2624 115.819 76.6341 114.609 76.9594C106.489 79.1899 98.3683 81.4204 90.2047 83.6973C88.6065 84.162 86.9652 84.5802 85.3238 84.9984C83.5961 85.4166 81.8685 85.7882 80.0975 86.067C77.074 86.5317 65.1958 89.5986 64.7639 92.6655C63.7272 100.519 62.7769 108.372 61.9562 116.271C59.8829 135.741 58.3279 155.165 58.3711 174.681C58.4143 194.151 56.7729 213.574 53.7926 232.859C53.5766 234.346 52.4969 242.199 51.201 250.237C51.2874 250.377 51.3306 250.516 51.417 250.656C52.4536 252.793 53.5765 254.838 54.8292 256.836C54.9587 257.022 55.1747 257.347 55.3907 257.719C55.5203 257.858 55.6067 257.998 55.6931 258.09C57.0753 259.81 58.6302 261.436 60.2284 262.97C60.3579 263.109 60.574 263.295 60.8331 263.574C58.6303 261.343 60.9627 263.62 61.6106 264.085C63.2951 265.293 65.0229 266.408 66.7939 267.384C67.2258 267.616 69.0399 268.453 69.2127 268.546C69.3855 268.639 69.6014 268.685 69.7742 268.778C95.2584 267.616 120.699 265.711 145.968 262.97C147.523 261.622 149.207 260.275 150.892 259.345Z" fill="#E8E8E8"/>
<path d="M65.5419 490.847C65.2828 490.847 65.0237 490.847 64.7645 490.893C64.4189 490.986 64.2027 491.219 63.9868 491.405C63.0797 492.38 62.3888 493.449 62 494.611C61.6545 495.679 61.568 496.841 60.8337 497.771C60.0131 498.839 58.5012 499.49 56.9894 500.001C53.1452 501.349 48.9989 502.278 44.8091 502.696C43.8588 502.789 42.9085 502.882 42.0446 503.161C39.6258 504.044 39.021 506.321 38.7187 508.319C38.6323 508.876 38.5891 509.573 39.237 509.899C39.5825 510.085 40.0146 510.084 40.4465 510.084C52.5407 510.038 57.6806 510.038 69.7316 510.038C72.6688 510.038 75.7354 509.945 78.5862 509.388C78.975 509.295 79.3637 509.248 79.6661 509.016C79.9684 508.783 80.098 508.458 80.2276 508.133C81.8258 503.672 81.9986 498.793 81.6531 494.193C81.5235 492.752 81.3075 491.59 79.191 491.265C76.1674 490.8 79.4933 491.172 76.4265 491.079C72.8415 491.033 69.1702 490.94 65.5419 490.847Z" fill="#97A8B2"/>
<path d="M117.762 38.5307C117.806 34.5344 115.646 30.9099 113.832 27.4248C110.808 21.6164 108.389 15.3432 104.675 9.99943C100.96 4.65564 95.4745 0.194774 89.2547 0.00890275C86.6631 -0.0840326 84.1145 0.56656 81.6093 1.21711C70.8973 4.00517 60.099 6.83963 50.3372 12.3228C49.1278 13.0198 47.8752 13.7634 47.0977 15.018C46.4066 16.0868 46.1906 17.4343 45.9746 18.7354C45.6723 20.5476 45.3701 22.4063 45.0677 24.2185C44.895 25.3802 44.6788 26.542 44.8948 27.6572C45.5427 31.1423 49.3437 32.6756 52.6696 32.908C55.9523 33.0938 59.1919 32.6292 62.4314 32.1181C65.5413 31.6534 72.8842 28.8654 75.3894 31.8858C76.6421 33.3728 76.2534 35.882 77.1173 37.6478C78.1539 39.8317 80.0976 41.1328 81.3934 43.0844C82.7324 44.8966 83.6826 47.406 82.6892 49.4506C84.5033 48.2889 86.7493 47.9171 88.8226 48.4747C89.5569 48.6605 90.2912 48.9859 90.7663 49.59C91.6734 50.7982 91.2847 52.6568 90.2913 53.7721C89.2978 54.8873 87.8724 55.3983 86.4902 55.863C92.3645 61.9503 94.5241 71.848 91.8029 80.1657C96.2951 79.6545 100.053 76.3089 103.163 72.7773C105.97 69.5711 108.562 66.0859 110.333 62.1362C111.154 60.2775 111.802 58.3723 112.45 56.4671C113.702 52.6568 114.998 48.7999 116.251 44.9896C117.028 42.8521 117.719 40.7146 117.762 38.5307Z" fill="#333333"/>
<path d="M103.077 491.265C102.818 491.265 102.559 491.265 102.3 491.312C101.954 491.405 101.738 491.637 101.522 491.823C100.615 492.799 99.9238 493.868 99.5351 495.029C99.1895 496.098 99.1031 497.26 98.3688 498.189C97.5481 499.258 96.0363 499.908 94.5245 500.419C90.6803 501.767 86.5336 502.696 82.3439 503.115C81.3936 503.208 80.4435 503.301 79.5797 503.579C77.1608 504.462 76.556 506.739 76.2537 508.737C76.1673 509.295 76.1241 509.992 76.772 510.317C77.1175 510.503 77.5496 510.503 77.9815 510.503C90.0757 510.457 95.2156 510.457 107.267 510.457C110.204 510.457 113.27 510.364 116.121 509.806C116.51 509.713 116.899 509.666 117.201 509.434C117.503 509.202 117.633 508.876 117.763 508.551C119.361 504.09 119.534 499.211 119.188 494.611C119.059 493.17 118.843 492.009 116.726 491.684C113.702 491.219 117.028 491.591 113.962 491.498C110.333 491.451 106.705 491.358 103.077 491.265Z" fill="#97A8B2"/>
<path d="M18.9788 181.418C17.7262 184.114 16.3009 186.762 14.7459 189.271C14.5299 189.643 14.2707 190.015 13.882 190.108C13.4932 190.247 13.0612 190.015 12.7157 189.829C8.5259 187.599 4.37947 185.368 0.189697 183.184C1.18315 172.59 0.621675 159.764 3.47245 149.681C3.86119 148.24 24.4212 152.097 25.8034 156.14C27.1424 160.136 23.3415 169.755 22.0889 173.612C21.225 176.261 20.1882 178.863 18.9788 181.418Z" fill="#C7B299"/>
<path d="M2.13347 150.796C2.73818 150.935 3.34281 150.982 3.94752 151.028C5.24333 151.168 6.49596 151.447 7.74858 151.725C13.9253 153.259 19.9292 155.489 25.8467 157.906C26.2354 158.045 26.624 158.231 27.056 158.184C27.7039 158.091 28.179 157.441 28.3517 156.79C28.5245 156.093 28.4381 155.396 28.3517 154.699C28.3517 154.56 28.3087 154.42 28.2223 154.328C28.1359 154.235 28.0495 154.188 27.9199 154.142C27.6175 154.002 27.3151 153.863 27.0127 153.77C25.6305 153.212 24.2052 152.748 22.7799 152.329C16.6032 150.471 10.3833 148.752 4.16344 147.172C3.86108 147.079 3.47247 147.032 3.21331 147.218C2.73818 147.59 2.47896 148.519 2.34938 149.077C2.13341 149.541 1.44237 150.657 2.13347 150.796Z" fill="#534741"/>
<path d="M1.83105 169.755L20.3178 178.398L24.0323 167.896L1.83105 158.184V169.755Z" fill="#5B8C87"/>
<path d="M71.1999 50.6577C71.1135 50.2395 70.6384 49.8214 70.1633 49.8679C65.5416 50.379 61.0062 51.4942 56.5572 52.7023C55.0023 53.1205 55.6935 55.5834 57.2052 55.1187C61.2222 54.0035 65.3256 53.1671 69.3426 52.1912C69.8609 54.4217 70.2927 56.6986 70.5519 59.022C70.6815 60.0443 70.7248 61.0666 70.7248 62.0889C70.768 63.9476 68.1763 64.0869 67.0532 64.3192C65.671 64.5981 64.2887 64.691 62.9066 64.7374C60.8765 64.8304 60.7469 63.8546 59.9694 62.4141C58.8032 60.2301 57.8962 57.9532 57.0755 55.6298C56.8164 54.8863 55.7364 55.2116 55.9092 55.9551C56.8163 59.3008 57.9825 62.693 59.7103 65.7134C60.9629 67.8973 65.6278 66.5498 67.5283 66.271C69.6448 65.9457 72.3659 65.4344 72.6251 62.8322C73.1002 58.8825 72.1502 54.5146 71.1999 50.6577Z" fill="#333333"/>
<path d="M82.2577 46.2904C78.2839 47.9168 74.4829 50.3796 70.6819 52.4241C69.9476 52.7959 70.4659 54.0969 71.2434 53.8181C75.2604 52.3776 79.5795 51.1696 83.4238 49.2644C84.9787 48.5209 83.8559 45.6398 82.2577 46.2904Z" fill="#333333"/>
<path d="M116.64 116.364C115.085 109.951 108.605 96.5687 101.781 106.187C99.7076 109.115 99.1895 113.018 98.8008 116.689C95.4749 146.289 92.1058 175.842 88.7799 205.442C87.0521 220.87 85.1516 236.808 77.7223 250.098C76.5129 252.235 75.1738 254.327 74.6123 256.743C74.0075 259.159 74.3533 261.994 76.1242 263.62C73.7053 266.873 75.6922 273.936 80.1412 273.564C81.0914 273.471 81.9552 273.053 82.7327 272.449C87.1816 269.149 86.0586 263.016 87.0953 257.905C88.4775 250.934 90.4643 244.15 92.4512 237.412C100.053 211.344 109.599 185.926 114.696 159.3C117.374 145.081 120.052 130.351 116.64 116.364Z" fill="#EADDD0"/>
<path d="M99.362 100.38C97.6342 100.798 95.8633 101.263 94.5675 102.517C92.883 104.144 92.3215 106.699 91.8463 109.069C86.6631 135.835 82.7326 162.879 80.0546 190.109C88.6069 192.432 97.2025 194.756 105.755 197.079C116.64 171.615 121.52 143.223 119.793 115.296C119.49 110.324 118.713 104.794 115.128 101.634C110.808 97.9633 104.675 99.0786 99.362 100.38Z" fill="#6087A2"/>
<defs>
<linearGradient id="paint0_linear_1_3534" x1="32.614" y1="509.792" x2="152.892" y2="509.792" gradientUnits="userSpaceOnUse">
<stop stop-color="#4D4D4D"/>
<stop offset="1"/>
</linearGradient>
<linearGradient id="paint1_linear_1_3534" x1="32.614" y1="509.792" x2="152.892" y2="509.792" gradientUnits="userSpaceOnUse">
<stop/>
<stop offset="1"/>
</linearGradient>
</defs>
</svg>
