<svg width="40" height="40" viewBox="0 0 40 40" fill="none" xmlns="http://www.w3.org/2000/svg">
<path fill-rule="evenodd" clip-rule="evenodd" d="M5 2.5C4.33696 2.5 3.70107 2.76339 3.23223 3.23223C2.76339 3.70108 2.5 4.33696 2.5 5L2.5 35C2.5 35.663 2.76339 36.2989 3.23223 36.7678C3.70107 37.2366 4.33696 37.5 5 37.5L35 37.5C35.663 37.5 36.2989 37.2366 36.7678 36.7678C37.2366 36.2989 37.5 35.663 37.5 35L37.5 5C37.5 4.33696 37.2366 3.70107 36.7678 3.23223C36.2989 2.76339 35.663 2.5 35 2.5L5 2.5ZM5 40C3.67392 40 2.40215 39.4732 1.46447 38.5355C0.526784 37.5979 -1.60592e-07 36.3261 -2.18557e-07 35L-1.5299e-06 5C-1.58786e-06 3.67392 0.526783 2.40215 1.46446 1.46447C2.40215 0.526787 3.67392 -1.60592e-07 5 -2.18557e-07L35 -1.5299e-06C36.3261 -1.58786e-06 37.5978 0.526785 38.5355 1.46447C39.4732 2.40215 40 3.67391 40 5L40 35C40 36.3261 39.4732 37.5979 38.5355 38.5355C37.5978 39.4732 36.3261 40 35 40L5 40ZM11.25 18.75C10.9185 18.75 10.6005 18.8817 10.3661 19.1161C10.1317 19.3505 10 19.6685 10 20C10 20.3315 10.1317 20.6495 10.3661 20.8839C10.6005 21.1183 10.9185 21.25 11.25 21.25L25.7325 21.25L20.365 26.615C20.1303 26.8497 19.9984 27.1681 19.9984 27.5C19.9984 27.8319 20.1303 28.1503 20.365 28.385C20.5997 28.6197 20.9181 28.7516 21.25 28.7516C21.5819 28.7516 21.9003 28.6197 22.135 28.385L29.635 20.885C29.7514 20.7689 29.8438 20.6309 29.9068 20.4791C29.9698 20.3272 30.0022 20.1644 30.0022 20C30.0022 19.8356 29.9698 19.6728 29.9068 19.5209C29.8438 19.3691 29.7514 19.2311 29.635 19.115L22.135 11.615C21.9003 11.3803 21.5819 11.2484 21.25 11.2484C20.9181 11.2484 20.5997 11.3803 20.365 11.615C20.1303 11.8497 19.9984 12.1681 19.9984 12.5C19.9984 12.8319 20.1303 13.1503 20.365 13.385L25.7325 18.75L11.25 18.75Z" fill="black"/>
</svg>
