<svg width="506" height="517" viewBox="0 0 506 517" fill="none" xmlns="http://www.w3.org/2000/svg">
<path d="M256.613 508.273C269.01 508.041 281.45 507.855 293.803 506.6C299.98 505.996 306.199 505.113 312.117 503.208C316.782 501.721 321.663 499.212 323.822 494.519C324.125 493.868 324.384 493.125 324.254 492.381C324.168 491.638 323.736 491.034 323.218 490.523C320.712 487.874 316.825 487.781 313.326 487.827C279.074 488.339 244.821 489.035 210.655 492.009C204.522 492.567 197.568 493.636 194.026 499.073C186.294 510.922 212.901 508.32 217.696 508.459C230.697 508.738 243.655 508.505 256.613 508.273Z" fill="url(#paint0_linear_0_1)"/>
<path d="M256.613 508.273C269.01 508.041 281.45 507.855 293.803 506.6C299.98 505.996 306.199 505.113 312.117 503.208C316.782 501.721 321.663 499.212 323.822 494.519C324.125 493.868 324.384 493.125 324.254 492.381C324.168 491.638 323.736 491.034 323.218 490.523C320.712 487.874 316.825 487.781 313.326 487.827C279.074 488.339 244.821 489.035 210.655 492.009C204.522 492.567 197.568 493.636 194.026 499.073C186.294 510.922 212.901 508.32 217.696 508.459C230.697 508.738 243.655 508.505 256.613 508.273Z" fill="url(#paint1_linear_0_1)"/>
<path d="M169.362 333.461C178.605 382.345 204.91 426.025 214.111 474.956C214.715 478.162 215.277 481.461 216.918 484.156C218.602 486.851 221.713 488.849 224.607 488.013C229.876 486.479 229.833 478.58 229.099 472.772C226.939 455.439 228.796 437.828 230.697 420.449C233.634 393.358 236.571 366.268 239.508 339.131C241.711 336.668 245.685 337.225 248.104 339.456C250.523 341.64 251.689 344.985 252.639 348.238C256.915 362.689 258.686 377.792 260.5 392.801C264.085 422.865 267.627 452.976 268.059 483.273C270.608 483.459 273.156 483.645 275.705 483.784C286.157 453.766 294.018 422.819 301.405 391.825C305.162 376.119 308.791 360.366 311.166 344.335C314.276 323.285 315.097 301.91 315.745 280.628C315.874 276.306 315.918 271.706 313.628 268.128C311.598 264.968 308.1 263.342 304.731 261.948C275.834 250.006 244.778 245.591 213.938 242.989C205.256 242.245 196.488 241.688 187.935 243.361C181.197 244.662 173.854 247.543 168.801 252.747C163.099 258.648 164.956 267.989 164.913 276.12C164.827 295.312 165.777 314.595 169.362 333.461Z" fill="#666666"/>
<path d="M151.091 224.959C148.241 234.253 145.995 245.266 151.264 253.258C153.77 257.022 157.57 259.485 161.415 261.576C183.011 273.286 207.718 276.027 231.777 278.536C253.46 280.813 275.23 283.09 296.999 281.836C307.366 281.231 318.294 279.605 326.371 272.589C334.059 265.944 338.076 255.303 339.156 244.754C340.236 234.206 338.767 223.565 337.256 213.063C335.614 201.539 333.973 190.015 331.165 178.77C326.284 159.207 317.775 140.713 306.372 124.635C297.734 112.507 287.238 101.541 274.366 95.0355C262.185 88.8553 243.698 86.0207 231.043 92.6656C218.387 99.264 206.768 118.269 198.302 129.979C177.699 158.464 161.587 190.712 151.091 224.959Z" fill="#FCEE9F"/>
<path d="M271.731 61.2068C271.601 63.6696 271.472 66.1788 270.824 68.5951C269.226 74.3107 264.388 79.4686 257.822 82.2101C251.257 84.9517 243.093 85.2769 236.355 82.8606C229.66 80.4908 224.736 75.844 220.806 70.9649C212.599 60.742 207.804 48.5676 208.927 36.486C209.1 34.6737 209.446 32.815 210.871 31.3745C212.901 29.3299 216.486 28.8652 219.726 28.5864C230.395 27.5641 259.982 20.3152 268.75 25.8448C277.432 31.328 272.163 53.5396 271.731 61.2068Z" fill="#F2D6C9"/>
<path d="M185.517 26.4956C187.072 33.6052 195.494 38.9954 204.522 40.25C213.549 41.4582 222.836 39.1348 230.697 35.4173C239.076 31.4211 246.938 25.6127 256.7 25.2874C258.514 25.2409 260.371 25.3804 261.926 26.0309C263.654 26.7744 264.906 28.1219 265.9 29.4695C271.472 36.9043 272.292 45.9191 272.984 54.5156C275.964 47.0343 278.34 39.4136 280.024 31.6535C281.881 23.1963 282.4 13.2987 274.625 7.39733C268.707 2.88997 259.594 2.10001 251.387 2.88996C239.854 4.00518 228.753 7.81557 219.812 13.6705C216.27 15.9939 213.031 18.6426 209.143 20.6872C205.299 22.6853 200.634 24.0793 196.056 23.4287C191.045 22.6853 190.052 19.386 186.553 17.5273C185.128 20.1294 184.912 23.6146 185.517 26.4956Z" fill="#D1B380"/>
<path d="M289.57 147.637C286.373 141.317 281.665 136.16 277.691 130.398C273.718 124.636 270.392 117.851 270.737 110.695C271.083 103.539 276.309 96.2904 282.961 96.3369C285.725 96.3369 288.317 97.545 290.779 98.8925C298.77 103.214 306.07 109.115 312.074 116.271C314.406 119.059 316.566 122.033 318.077 125.426C320.28 130.398 320.885 136.02 321.446 141.503C322.397 151.169 323.174 160.973 321.231 170.453C318.423 183.975 309.439 196.057 297.561 201.493C295.012 202.655 291.124 204.653 288.706 203.166C286.114 201.586 285.639 197.962 286.201 195.22C287.669 187.692 292.464 181.466 293.544 173.473C294.623 164.691 293.543 155.49 289.57 147.637Z" fill="#F2D6C9"/>
<path d="M275.704 200.517C275.186 200.888 274.668 201.307 274.279 201.818C273.329 203.119 273.286 204.884 273.286 206.557C273.286 209.206 273.545 212.319 275.661 213.667C276.611 214.271 277.778 214.364 278.901 214.41C280.067 214.457 281.233 214.55 282.399 214.596C283.652 214.689 284.991 214.736 286.027 213.992C287.107 213.249 287.583 211.855 288.014 210.554C289.051 207.347 290.088 204.188 291.124 200.981C291.297 200.424 291.47 199.819 291.254 199.308C291.124 198.983 290.822 198.751 290.563 198.565C288.101 196.52 286.935 195.498 283.782 196.242C281.147 196.846 277.605 198.472 275.704 200.517Z" fill="#F2D6C9"/>
<path d="M298.986 485.968C297.431 484.434 295.142 484.202 293.068 484.063C289.958 483.83 286.849 483.551 283.739 483.319C282.4 483.226 280.974 483.087 279.894 482.25C279.462 481.925 279.117 481.46 278.814 480.996C277.821 480.996 276.871 480.949 275.877 480.949C272.292 480.857 268.707 482.297 265.208 483.459C265.943 486.758 266.634 490.011 267.368 493.31C267.498 493.96 267.671 494.657 268.146 495.076C268.621 495.494 269.312 495.54 269.96 495.54C280.326 495.819 290.736 495.401 301.059 494.332C301.146 491.311 301.059 487.919 298.986 485.968Z" fill="black"/>
<path d="M227.458 482.994C227.631 487.408 227.76 492.055 225.86 496.005C224.521 498.793 222.275 500.884 220.072 502.975C218.906 504.044 217.782 505.112 216.616 506.228C216.314 506.507 215.968 506.832 215.58 506.971C215.148 507.111 214.672 507.111 214.241 507.064C212.254 506.971 210.31 507.157 208.323 507.018C206.379 506.832 204.349 506.228 202.967 504.694C201.585 503.161 201.153 500.559 202.362 498.886C203.14 497.817 204.436 497.306 205.559 496.702C208.971 495.029 211.908 492.287 213.895 488.895C215.148 486.758 216.314 484.527 218.603 483.644C219.467 483.319 227.458 482.343 227.458 482.994Z" fill="black"/>
<path d="M297.215 191.27C296.74 190.202 296.222 189.133 295.401 188.389C294.321 187.46 292.853 187.413 291.514 187.367C267.455 186.531 243.353 185.648 219.294 184.811C217.35 184.718 215.579 186.066 214.758 188.111C210.871 197.962 206.25 206.233 203.312 216.502C202.924 217.896 203.831 219.29 205.126 219.337C237.608 219.801 271.774 223.565 304.212 220.638C306.415 220.452 307.754 217.757 306.804 215.48C303.564 207.581 300.411 198.333 297.215 191.27Z" fill="#7F7F7F"/>
<path d="M296.567 188.993C296.092 187.925 295.617 186.856 294.753 186.112C293.673 185.183 292.248 185.137 290.952 185.09C267.325 184.254 243.699 183.371 220.115 182.534C218.214 182.441 216.443 183.789 215.666 185.834C211.822 195.685 207.286 203.956 204.436 214.225C204.047 215.619 204.954 217.013 206.206 217.06C238.083 217.525 271.602 221.289 303.435 218.361C305.595 218.175 306.891 215.48 305.983 213.203C302.83 205.303 299.72 196.057 296.567 188.993Z" fill="#666666"/>
<path d="M292.809 191.084C292.377 190.341 291.945 189.551 291.167 189.04C290.217 188.389 288.921 188.342 287.712 188.296C266.418 187.692 245.123 187.042 223.829 186.437C222.101 186.391 220.546 187.32 219.812 188.807C216.356 195.87 212.253 201.818 209.704 209.206C209.359 210.182 210.18 211.205 211.303 211.251C240.069 211.576 270.305 214.318 298.985 212.18C300.929 212.041 302.139 210.089 301.275 208.463C298.467 202.794 295.66 196.149 292.809 191.084Z" fill="#F0F0F0"/>
<path d="M264.777 193.13C264.647 193.315 264.69 193.548 264.733 193.78C265.597 199.124 266.461 204.561 268.362 209.579C274.063 209.579 279.765 209.579 285.466 209.626C287.28 209.626 289.095 209.625 290.822 209.254C288.922 203.956 286.978 198.659 285.078 193.362C278.555 193.548 272.033 193.408 265.554 192.944C265.252 192.897 264.949 192.897 264.777 193.13Z" fill="#E0C74E"/>
<path d="M257.606 192.571C247.11 193.175 236.701 192.989 226.205 192.571C225.384 192.525 225.384 193.872 226.205 193.965C236.658 194.801 247.154 194.661 257.606 194.104C258.514 194.057 258.557 192.525 257.606 192.571Z" fill="#CACACA"/>
<path d="M258.686 196.893C248.406 196.847 238.126 197.172 227.889 197.776C227.112 197.822 227.112 199.122 227.889 199.076C238.169 198.565 248.406 198.426 258.686 198.472C259.636 198.472 259.636 196.893 258.686 196.893Z" fill="#CACACA"/>
<path d="M258.686 202.329C247.888 201.818 237.046 201.725 226.248 201.772C225.427 201.772 225.427 203.119 226.248 203.119C237.089 203.304 247.888 203.676 258.686 203.955C259.637 203.955 259.637 202.376 258.686 202.329Z" fill="#CACACA"/>
<path d="M255.792 206.465C246.203 206.372 236.571 206.558 226.939 206.651C226.118 206.651 226.118 207.998 226.939 207.998C236.528 208.091 246.16 208.277 255.792 208.184C256.829 208.184 256.829 206.512 255.792 206.465Z" fill="#CACACA"/>
<path d="M216.054 200.75C217.825 200.936 219.639 201.122 221.41 200.75C222.879 200.471 224.304 199.821 225.514 198.891C227.414 197.451 228.84 195.127 228.969 192.618C229.056 190.109 227.587 187.507 225.341 186.81C224.304 186.484 223.224 186.577 222.144 186.81C217.393 187.693 213.074 190.62 208.279 190.992C206.508 191.131 204.522 190.992 203.269 192.293C202.578 193.036 202.232 194.059 202.059 195.128C201.887 196.243 201.843 197.497 202.362 198.473C203.355 200.378 206.249 199.774 207.977 199.914C210.655 200.192 213.333 200.471 216.054 200.75Z" fill="#F2D6C9"/>
<path d="M184.523 111.532C176.575 117.944 170.097 126.262 163.92 134.626C158.218 142.386 152.56 150.518 149.752 159.951C146.945 169.384 147.42 180.49 153.121 188.25C158.909 196.103 168.585 198.984 177.742 200.889C181.37 201.632 185.085 202.329 188.799 202.051C192.903 201.772 199.511 202.608 203.442 201.214C205.558 200.471 205.559 198.287 207.157 196.614C208.755 194.941 209.1 191.317 207.977 189.272C201.325 188.807 194.674 188.064 188.065 187.042C182.579 186.205 176.619 184.858 173.077 180.304C169.233 175.378 169.492 167.804 172.342 162.135C175.193 156.466 180.16 152.423 185.3 149.124C190.441 145.825 195.926 143.083 200.678 139.18C208.798 132.489 243.007 105.909 233.289 94.6638C225.514 85.8349 191.218 106.095 184.523 111.532Z" fill="#F2D6C9"/>
<path d="M322.613 129.608C323.001 126.959 321.317 124.496 319.762 122.405C316.35 117.851 312.937 113.251 309.482 108.697C307.84 106.513 306.199 104.283 304.169 102.47C300.152 98.846 294.969 97.1267 289.958 95.5468C284.214 93.7346 277.519 92.2011 272.681 95.965C269.355 98.5672 267.843 103.167 267.843 107.582C267.843 111.996 269.182 116.225 270.651 120.361C272.81 126.494 275.143 132.86 278.21 138.529C280.758 143.316 283.609 142.944 287.928 140.853C299.202 135.416 310.346 131.188 322.613 129.608Z" fill="#FCEE9F"/>
<path d="M190.484 124.171C194.198 130.537 198.777 136.253 203.356 141.922C203.701 142.386 204.133 142.851 204.695 142.851C205.127 142.851 205.515 142.572 205.818 142.293C209.403 139.32 211.822 135.091 214.932 131.559C221.108 124.589 230.006 120.5 234.887 112.461C237.651 107.861 238.861 102.192 238.256 96.7552C238.04 94.85 237.565 92.8983 236.442 91.4578C234.844 89.3667 232.209 88.5303 229.704 88.5303C226.119 88.5303 222.663 89.878 219.337 91.272C209.878 95.2218 200.548 99.5897 191.391 104.329C189.145 105.491 186.856 106.699 184.61 107.907C181.672 109.534 180.938 109.487 182.839 112.275C185.56 116.132 188.065 119.989 190.484 124.171Z" fill="#FCEE9F"/>
<path d="M475.043 516.498C483.336 516.498 491.802 516.405 499.706 513.663C500.311 511.665 499.188 509.389 497.547 508.18C495.905 506.972 493.919 506.6 491.932 506.322C485.28 505.392 478.542 505.16 471.803 504.928C445.671 504.091 419.496 503.255 393.321 503.069C390.038 503.022 376.346 503.998 380.233 511.154C382.825 515.941 394.962 514.268 399.195 514.5C415.306 515.336 431.417 515.894 447.572 516.219C456.729 516.405 465.886 516.498 475.043 516.498Z" fill="url(#paint2_linear_0_1)"/>
<path d="M475.043 516.498C483.336 516.498 491.802 516.405 499.706 513.663C500.311 511.665 499.188 509.389 497.547 508.18C495.905 506.972 493.919 506.6 491.932 506.322C485.28 505.392 478.542 505.16 471.803 504.928C445.671 504.091 419.496 503.255 393.321 503.069C390.038 503.022 376.346 503.998 380.233 511.154C382.825 515.941 394.962 514.268 399.195 514.5C415.306 515.336 431.417 515.894 447.572 516.219C456.729 516.405 465.886 516.498 475.043 516.498Z" fill="url(#paint3_linear_0_1)"/>
<path d="M496.337 231.882C496.337 231.882 497.805 206.976 455.864 208.742C455.044 208.788 454.266 208.788 453.489 208.834C453.186 209.02 452.927 209.16 452.625 209.346C452.02 211.019 451.502 212.691 451.113 214.411C450.984 214.875 450.897 215.619 450.768 216.316C450.465 219.011 450.552 217.803 450.768 216.316C450.811 215.758 450.897 215.061 450.983 214.178C450.854 215.293 450.638 216.409 450.508 217.478C449.213 227.422 449.515 237.459 448.694 247.403C448.003 255.906 446.405 264.41 444.677 272.82C446.319 272.728 448.176 272.774 449.213 273.192C451.329 274.029 452.323 480.345 448.694 493.17L465.367 493.356C465.41 493.403 497.719 281.51 496.337 231.882Z" fill="#97A8B2"/>
<path d="M450.552 116.038C445.671 115.295 440.488 118.037 438.112 122.683C436.6 125.657 436.211 129.142 435.823 132.534C434.441 144.57 432.67 156.558 430.553 168.5C429.128 176.586 428.955 192.664 418.329 193.453C414.356 193.779 410.252 190.526 406.322 189.876C399.886 188.76 393.839 188.389 387.619 185.972C382.608 184.021 379.282 181.14 375.525 177.236C373.279 174.866 370.125 170.173 367.102 169.291C364.942 168.64 362.221 171.335 363.56 173.24C360.882 171.521 357.038 174.262 356.908 177.655C356.649 184.114 368.484 187.784 372.674 190.573C379.153 194.94 385.546 199.541 392.586 202.794C403.687 207.905 415.695 210.786 427.746 211.018C429.862 211.065 432.108 210.972 433.922 209.81C437.81 207.254 439.883 201.26 442.863 197.543C445.584 194.104 447.053 191.827 448.306 187.366C451.761 175.099 454.742 162.506 456.988 149.913C459.104 139.319 466.404 118.548 450.552 116.038Z" fill="#EADDD0"/>
<path d="M401.657 305.952C401.916 313.898 402.434 321.844 402.909 329.79C403.643 341.685 404.378 353.581 405.069 365.477C405.285 369.287 405.63 373.33 407.79 376.35C408.006 376.676 408.265 376.954 408.611 377.094C409.777 377.558 410.684 375.979 411.073 374.724C415.695 359.761 422.519 345.635 431.287 332.996C433.533 329.79 435.952 326.583 439.192 324.585C441.611 323.098 444.375 322.308 447.14 321.565C452.582 320.078 458.067 318.591 463.51 317.104C466.706 316.221 470.032 315.292 472.537 313.015C474.524 311.203 475.82 308.693 477.073 306.231C483.465 293.824 489.901 281.277 493.141 267.523C495.516 257.486 496.121 247.077 495.948 236.761C495.948 235.739 495.905 234.67 495.559 233.741C495.084 232.44 494.048 231.417 492.968 230.628C488.865 227.7 483.638 227.329 478.714 227.096C460.011 226.213 440.877 225.795 422.562 230.488C416.904 231.929 407.315 233.416 404.551 239.875C401.181 247.774 402.218 260.042 401.829 268.592C401.268 280.999 401.182 293.498 401.657 305.952Z" fill="#97A8B2"/>
<path d="M439.883 292.152C429.43 290.618 418.934 289.131 408.481 287.598C407.963 286.157 410.555 287.644 410.382 289.131C404.896 336.203 407.013 384.018 411.375 431.369C413.276 451.768 413.405 472.26 411.419 492.613C415.738 493.124 423.167 493.821 427.443 494.333C435.391 430.904 440.185 367.29 448.133 303.862C448.522 300.655 448.781 296.938 446.492 294.615C444.807 292.895 442.259 292.477 439.883 292.152Z" fill="#97A8B2"/>
<path d="M426.277 84.4403C432.54 84.208 438.933 79.6541 445.671 78.1672C443.9 72.3122 446.016 65.9926 446.578 59.8589C447.355 51.5412 445.196 43.2699 442.95 35.324C441.135 28.9114 439.105 22.2666 434.829 17.341C433.965 16.3652 432.972 15.4358 431.806 15.1105C430.769 14.8317 429.689 15.0176 428.652 15.157C421.266 16.3652 400.75 17.2945 398.806 26.2163C396.128 38.4373 403.946 54.6545 408.351 65.4814C410.425 70.5929 412.541 75.7973 416.169 79.7471C419.452 83.418 422.865 84.5797 426.277 84.4403Z" fill="#EADDD0"/>
<path d="M497.892 259.345L498.021 259.206C498.108 259.113 498.151 259.02 498.237 258.973C498.41 258.695 498.583 258.462 498.756 258.184C500.958 254.559 502.859 250.749 504.803 246.985C508.431 203.026 503.809 158.65 490.981 115.435C486.964 101.866 482.99 86.9036 467.916 77.61C467.138 77.1454 466.317 76.6806 465.367 76.4947C464.114 76.2624 462.819 76.6341 461.609 76.9594C453.489 79.1899 445.368 81.4204 437.205 83.6973C435.607 84.162 433.965 84.5802 432.324 84.9984C430.596 85.4166 428.868 85.7882 427.098 86.067C424.074 86.5317 412.196 89.5986 411.764 92.6655C410.727 100.519 409.777 108.372 408.956 116.271C406.883 135.741 405.328 155.165 405.371 174.681C405.414 194.151 403.773 213.574 400.793 232.859C400.577 234.346 399.497 242.199 398.201 250.237C398.287 250.377 398.331 250.516 398.417 250.656C399.454 252.793 400.577 254.838 401.829 256.836C401.959 257.022 402.175 257.347 402.391 257.719C402.52 257.858 402.607 257.998 402.693 258.09C404.075 259.81 405.63 261.436 407.228 262.97C407.358 263.109 407.574 263.295 407.833 263.574C405.63 261.343 407.963 263.62 408.611 264.085C410.295 265.293 412.023 266.408 413.794 267.384C414.226 267.616 416.04 268.453 416.213 268.546C416.385 268.639 416.601 268.685 416.774 268.778C442.258 267.616 467.699 265.711 492.968 262.97C494.523 261.622 496.207 260.275 497.892 259.345Z" fill="#E8E8E8"/>
<path d="M412.542 490.847C412.283 490.847 412.024 490.847 411.764 490.893C411.419 490.986 411.203 491.219 410.987 491.405C410.08 492.38 409.389 493.449 409 494.611C408.654 495.679 408.568 496.841 407.834 497.771C407.013 498.839 405.501 499.49 403.989 500.001C400.145 501.349 395.999 502.278 391.809 502.696C390.859 502.789 389.909 502.882 389.045 503.161C386.626 504.044 386.021 506.321 385.719 508.319C385.632 508.876 385.589 509.573 386.237 509.899C386.583 510.085 387.015 510.084 387.447 510.084C399.541 510.038 404.681 510.038 416.732 510.038C419.669 510.038 422.735 509.945 425.586 509.388C425.975 509.295 426.364 509.248 426.666 509.016C426.968 508.783 427.098 508.458 427.228 508.133C428.826 503.672 428.999 498.793 428.653 494.193C428.523 492.752 428.307 491.59 426.191 491.265C423.167 490.8 426.493 491.172 423.427 491.079C419.841 491.033 416.17 490.94 412.542 490.847Z" fill="#97A8B2"/>
<path d="M464.762 38.5307C464.806 34.5344 462.646 30.9099 460.832 27.4248C457.808 21.6164 455.389 15.3432 451.675 9.99943C447.96 4.65564 442.475 0.194774 436.255 0.00890275C433.663 -0.0840326 431.115 0.56656 428.609 1.21711C417.897 4.00517 407.099 6.83963 397.337 12.3228C396.128 13.0198 394.875 13.7634 394.098 15.018C393.407 16.0868 393.191 17.4343 392.975 18.7354C392.672 20.5476 392.37 22.4063 392.068 24.2185C391.895 25.3802 391.679 26.542 391.895 27.6572C392.543 31.1423 396.344 32.6756 399.67 32.908C402.952 33.0938 406.192 32.6292 409.431 32.1181C412.541 31.6534 419.884 28.8654 422.389 31.8858C423.642 33.3728 423.253 35.882 424.117 37.6478C425.154 39.8317 427.098 41.1328 428.393 43.0844C429.732 44.8966 430.683 47.406 429.689 49.4506C431.503 48.2889 433.749 47.9171 435.823 48.4747C436.557 48.6605 437.291 48.9859 437.766 49.59C438.673 50.7982 438.285 52.6568 437.291 53.7721C436.298 54.8873 434.872 55.3983 433.49 55.863C439.365 61.9503 441.524 71.848 438.803 80.1657C443.295 79.6545 447.053 76.3089 450.163 72.7773C452.97 69.5711 455.562 66.0859 457.333 62.1362C458.154 60.2775 458.802 58.3723 459.45 56.4671C460.702 52.6568 461.998 48.7999 463.251 44.9896C464.028 42.8521 464.719 40.7146 464.762 38.5307Z" fill="#333333"/>
<path d="M450.077 491.265C449.818 491.265 449.559 491.265 449.3 491.312C448.954 491.405 448.738 491.637 448.522 491.823C447.615 492.799 446.924 493.868 446.535 495.029C446.19 496.098 446.103 497.26 445.369 498.189C444.548 499.258 443.036 499.908 441.524 500.419C437.68 501.767 433.534 502.696 429.344 503.115C428.394 503.208 427.444 503.301 426.58 503.579C424.161 504.462 423.556 506.739 423.254 508.737C423.167 509.295 423.124 509.992 423.772 510.317C424.118 510.503 424.55 510.503 424.982 510.503C437.076 510.457 442.216 510.457 454.267 510.457C457.204 510.457 460.27 510.364 463.121 509.806C463.51 509.713 463.899 509.666 464.201 509.434C464.503 509.202 464.633 508.876 464.763 508.551C466.361 504.09 466.534 499.211 466.188 494.611C466.059 493.17 465.843 492.009 463.726 491.684C460.702 491.219 464.028 491.591 460.962 491.498C457.333 491.451 453.705 491.358 450.077 491.265Z" fill="#97A8B2"/>
<path d="M365.979 181.418C364.726 184.114 363.301 186.762 361.746 189.271C361.53 189.643 361.271 190.015 360.882 190.108C360.493 190.247 360.061 190.015 359.716 189.829C355.526 187.599 351.379 185.368 347.19 183.184C348.183 172.59 347.622 159.764 350.472 149.681C350.861 148.24 371.421 152.097 372.803 156.14C374.142 160.136 370.341 169.755 369.089 173.612C368.225 176.261 367.188 178.863 365.979 181.418Z" fill="#C7B299"/>
<path d="M349.133 150.796C349.738 150.935 350.343 150.982 350.948 151.028C352.243 151.168 353.496 151.447 354.749 151.725C360.925 153.259 366.929 155.489 372.847 157.906C373.235 158.045 373.624 158.231 374.056 158.184C374.704 158.091 375.179 157.441 375.352 156.79C375.524 156.093 375.438 155.396 375.352 154.699C375.352 154.56 375.309 154.42 375.222 154.328C375.136 154.235 375.049 154.188 374.92 154.142C374.618 154.002 374.315 153.863 374.013 153.77C372.631 153.212 371.205 152.748 369.78 152.329C363.603 150.471 357.383 148.752 351.163 147.172C350.861 147.079 350.472 147.032 350.213 147.218C349.738 147.59 349.479 148.519 349.349 149.077C349.133 149.541 348.442 150.657 349.133 150.796Z" fill="#534741"/>
<path d="M348.831 169.755L367.318 178.398L371.032 167.896L348.831 158.184V169.755Z" fill="#5B8C87"/>
<path d="M418.2 50.6577C418.114 50.2395 417.638 49.8214 417.163 49.8679C412.542 50.379 408.006 51.4942 403.557 52.7023C402.002 53.1205 402.693 55.5834 404.205 55.1187C408.222 54.0035 412.326 53.1671 416.343 52.1912C416.861 54.4217 417.293 56.6986 417.552 59.022C417.681 60.0443 417.725 61.0666 417.725 62.0889C417.768 63.9476 415.176 64.0869 414.053 64.3192C412.671 64.5981 411.289 64.691 409.907 64.7374C407.876 64.8304 407.747 63.8546 406.969 62.4141C405.803 60.2301 404.896 57.9532 404.076 55.6298C403.816 54.8863 402.736 55.2116 402.909 55.9551C403.816 59.3008 404.983 62.693 406.71 65.7134C407.963 67.8973 412.628 66.5498 414.528 66.271C416.645 65.9457 419.366 65.4344 419.625 62.8322C420.1 58.8825 419.15 54.5146 418.2 50.6577Z" fill="#333333"/>
<path d="M429.258 46.2904C425.284 47.9168 421.483 50.3796 417.682 52.4241C416.948 52.7959 417.466 54.0969 418.243 53.8181C422.26 52.3776 426.58 51.1696 430.424 49.2644C431.979 48.5209 430.856 45.6398 429.258 46.2904Z" fill="#333333"/>
<path d="M463.64 116.364C462.085 109.951 455.605 96.5687 448.781 106.187C446.708 109.115 446.19 113.018 445.801 116.689C442.475 146.289 439.106 175.842 435.78 205.442C434.052 220.87 432.152 236.808 424.722 250.098C423.513 252.235 422.174 254.327 421.612 256.743C421.008 259.159 421.353 261.994 423.124 263.62C420.705 266.873 422.692 273.936 427.141 273.564C428.091 273.471 428.955 273.053 429.733 272.449C434.182 269.149 433.059 263.016 434.095 257.905C435.477 250.934 437.464 244.15 439.451 237.412C447.053 211.344 456.599 185.926 461.696 159.3C464.374 145.081 467.052 130.351 463.64 116.364Z" fill="#EADDD0"/>
<path d="M446.362 100.38C444.634 100.798 442.863 101.263 441.568 102.517C439.883 104.144 439.321 106.699 438.846 109.069C433.663 135.835 429.733 162.879 427.055 190.109C435.607 192.432 444.202 194.756 452.755 197.079C463.64 171.615 468.52 143.223 466.793 115.296C466.49 110.324 465.713 104.794 462.128 101.634C457.808 97.9633 451.675 99.0786 446.362 100.38Z" fill="#6087A2"/>
<path d="M92.4339 512.548C101.116 512.27 109.798 511.944 118.436 511.247C122.626 510.922 126.946 510.457 130.747 508.506C132.82 507.437 134.937 505.067 133.986 502.836C133.209 500.978 130.876 500.699 128.932 500.699C97.6172 500.653 66.2586 500.606 34.9865 502.836C29.3281 503.255 22.8924 504.184 19.6528 509.202C15.679 515.429 27.5574 513.664 30.0194 513.71C36.8872 513.803 43.755 513.803 50.5796 513.71C64.5743 513.524 78.4824 513.059 92.4339 512.548Z" fill="url(#paint4_linear_0_1)"/>
<path d="M92.4339 512.548C101.116 512.27 109.798 511.944 118.436 511.247C122.626 510.922 126.946 510.457 130.747 508.506C132.82 507.437 134.937 505.067 133.986 502.836C133.209 500.978 130.876 500.699 128.932 500.699C97.6172 500.653 66.2586 500.606 34.9865 502.836C29.3281 503.255 22.8924 504.184 19.6528 509.202C15.679 515.429 27.5574 513.664 30.0194 513.71C36.8872 513.803 43.755 513.803 50.5796 513.71C64.5743 513.524 78.4824 513.059 92.4339 512.548Z" fill="url(#paint5_linear_0_1)"/>
<path d="M155.843 177.656C156.663 178.445 157.484 179.189 158.521 179.514C159.946 179.932 161.458 179.421 162.84 178.91C163.79 178.585 164.697 178.213 165.647 177.888C165.993 177.748 166.382 177.609 166.598 177.237C166.814 176.865 166.77 176.447 166.727 175.983C165.82 166.596 164.179 157.303 161.76 148.241C157.916 150.147 154.115 152.052 150.27 153.957C148.197 154.979 141.243 157.024 141.113 159.719C140.984 162.461 145.908 166.921 147.506 168.78C150.141 171.893 152.905 174.867 155.843 177.656Z" fill="white"/>
<path d="M157.613 146.522C158.736 146.011 159.946 145.5 161.199 145.686C162.408 145.872 163.617 147.034 163.444 148.335C163.315 149.264 158.736 151.494 157.916 152.006C155.929 153.26 153.899 154.422 151.825 155.537C149.752 156.652 147.636 157.675 145.519 158.651C144.353 159.208 141.805 160.927 140.422 160.416C135.369 158.511 144.18 153.307 145.692 152.377C149.536 150.147 153.553 148.335 157.613 146.522Z" fill="#333333"/>
<path d="M113.038 496.517C111.18 496.656 109.28 496.796 107.466 496.284C105.652 495.773 103.924 494.426 103.362 492.521C102.887 490.894 103.103 488.757 101.808 487.827C101.505 487.595 101.16 487.502 100.771 487.455C100.598 453.395 101.376 433.739 101.16 398.981C102.758 387.411 101.808 376.676 101.548 365.478C100.771 330.116 100.037 294.754 99.2591 259.392C99.1727 254.699 98.9999 249.82 96.8402 245.452C93.3415 238.389 85.5668 234.392 78.267 231.326C56.5839 222.218 32.0499 209.207 26.0891 238.481C24.491 246.242 23.1953 254.048 22.1154 261.948C21.3379 267.57 20.7332 273.425 22.6337 279.001C25.8732 288.481 31.8772 311.761 39.4793 318.638C59.3052 336.575 67.9438 356.835 74.466 380.626C72.4359 388.572 74.8114 399.817 75.7185 405.951C79.9515 435.365 88.6768 462.735 92.953 492.149C91.1388 495.773 90.3612 500.002 90.8795 504.091C90.9659 504.927 91.1386 505.764 91.6569 506.368C92.3912 507.251 93.6007 507.437 94.6805 507.529C97.7473 507.762 100.814 507.855 103.881 507.808C106.256 507.762 108.805 507.53 110.619 505.857C112.995 503.719 113.124 499.909 113.038 496.517Z" fill="#998675"/>
<path d="M87.2078 295.358C81.1175 280.907 58.8297 271.195 37.7944 287.691C25.2251 297.542 34.7709 308.509 37.5352 318.267C40.9043 330.116 43.1503 342.337 44.187 354.744C46.2171 378.675 43.9279 403.489 37.2761 428.349C32.8703 444.891 32.784 463.014 29.7172 479.51C28.0327 488.757 22.6766 501.024 23.9292 510.225C28.6805 510.271 33.4319 510.318 38.14 510.364C42.3298 510.411 46.7787 510.364 50.2774 507.902C53.7761 505.439 55.5037 499.584 52.5665 496.377C49.6725 497.4 46.6058 498.422 43.6254 497.679C30.5378 494.333 47.6425 462.503 50.1477 455.486C60.8165 425.561 71.4852 395.636 79.2169 365.71C84.9184 343.824 95.5874 315.107 87.2078 295.358Z" fill="#998675"/>
<path d="M91.2246 135.835C96.4078 149.543 101.591 163.204 106.774 176.912C108.2 180.676 109.625 184.672 108.934 188.622C107.724 195.639 100.598 199.403 94.1617 200.982C81.4196 181.513 67.9864 162.553 53.9485 144.152C45.9577 133.697 33.5181 109.534 51.8753 102.238C72.6946 94.0137 85.0479 119.478 91.2246 135.835Z" fill="#ACB18F"/>
<path d="M137.917 115.017C139.602 112.322 142.02 113.53 144.137 115.854C138.219 138.902 132.95 162.136 128.328 185.509C126.903 192.758 125.089 200.75 119.344 204.932C116.925 206.698 113.988 207.581 111.094 208.092C105.867 209.068 99.5612 208.557 96.624 203.817C92.4343 197.033 97.6175 190.434 101.764 185.695C106.645 180.165 108.718 176.587 111.742 169.059C118.696 151.68 128.112 130.816 137.917 115.017Z" fill="#ACB18F"/>
<path d="M147.808 113.948C148.283 113.298 148.542 112.508 148.845 111.718C149.579 109.72 150.313 107.675 151.047 105.677C151.393 104.747 151.739 103.818 151.782 102.842C151.825 101.867 151.566 100.798 150.875 100.147C150.227 99.5431 149.32 99.4037 148.456 99.5896C147.592 99.7754 146.901 100.287 146.21 100.844C144.698 102.099 143.445 103.725 142.582 105.584C141.89 107.071 141.459 108.697 140.379 109.859C139.904 110.37 139.342 110.788 138.91 111.392C138.262 112.275 138.133 113.53 138.521 114.552C139.947 117.944 146.166 116.271 147.808 113.948Z" fill="#F2D6C9"/>
<path d="M114.074 300.191C111.914 250.47 107.12 200.889 100.857 151.494C98.5676 133.372 95.8032 111.811 78.1802 103.354C61.8531 95.5007 41.725 93.5027 31.0994 111.16C25.1387 121.058 23.7995 133.047 22.5469 144.664C15.0312 215.713 7.51568 286.762 0 357.811C8.24997 358.322 106.99 374.074 107.422 367.43C107.422 367.337 107.422 367.244 107.422 367.197C108.07 367.151 108.675 367.011 109.236 366.733C111.439 365.664 112.087 362.829 112.476 360.367C115.37 340.478 114.938 320.265 114.074 300.191Z" fill="#EBEFEB"/>
<path d="M144.483 169.895C144.699 169.384 144.872 168.826 145.174 168.361C145.822 167.385 146.945 167.014 148.068 166.874C149.148 166.735 150.271 166.828 151.351 166.642C154.72 165.991 157.484 162.413 160.853 162.971C161.89 163.157 162.84 163.714 163.704 164.365C164.827 165.248 165.864 166.41 166.166 167.85C166.598 170.127 165.086 172.311 163.704 174.077C162.926 175.053 162.106 176.075 161.069 176.679C160.205 177.19 159.212 177.376 158.218 177.608C155.843 178.212 153.467 179.142 151.567 180.908C150.012 182.348 148.716 184.346 146.772 184.857C143.23 185.787 139.904 181.604 139.516 178.166C139.04 174.634 143.274 172.822 144.483 169.895Z" fill="#F2D6C9"/>
<path d="M146.858 182.116C145.303 178.77 143.748 175.424 142.236 172.079C137.355 172.962 133.684 177.144 130.185 180.861C125.348 186.019 120.121 190.759 114.549 195.034C111.267 197.543 107.509 199.959 103.535 199.309C98.6971 198.519 95.5873 193.454 93.0821 188.9C83.7523 171.753 74.4225 154.56 65.0927 137.414C57.7066 123.845 49.4565 128.817 44.1437 140.992C39.3492 152.098 45.5261 164.597 50.2774 174.634C56.4108 187.599 63.1921 200.192 70.6214 212.413C74.9839 219.569 80.2104 227.096 87.9853 229.002C91.6999 229.931 95.6737 229.42 99.3452 228.258C111.223 224.634 120.64 215.108 129.408 205.721C135.066 199.634 140.681 193.407 146.167 187.134C146.772 186.437 147.419 185.694 147.549 184.718C147.635 183.882 147.247 182.952 146.858 182.116Z" fill="#ACB18F"/>
<path d="M93.9458 34.9529C92.0021 28.7262 88.9354 21.059 82.6724 19.4327C75.891 17.7134 66.302 22.4995 61.378 27.1463C55.2877 32.8618 51.4865 40.9473 49.37 49.3115C47.0376 58.4192 46.6488 68.549 50.4499 77.0991C54.2509 85.6491 62.9329 92.0617 71.6148 90.6677C77.4459 89.7384 82.4132 85.6027 86.2143 80.7701C95.976 68.3632 98.7403 50.2872 93.9458 34.9529Z" fill="#F2D6C9"/>
<path d="M64.7902 58.3261C62.8465 54.6552 56.9721 54.8412 55.2444 58.605C53.9485 61.3931 58.6135 72.7311 59.3046 76.2162C61.1187 85.4633 51.8753 148.566 54.251 157.721C40.3859 158.046 26.3911 156.419 13.1739 151.866C11.8349 151.401 10.4096 150.843 9.45929 149.682C8.24987 148.148 8.20659 145.918 8.29298 143.92C9.32963 113.994 34.9865 12.1372 69.4982 13.0201C73.7311 13.113 77.9211 14.1353 82.0676 15.2041C84.7888 15.9011 87.5101 16.6911 89.9721 18.1781C94.9826 21.2914 98.0925 27.1928 99.3451 33.2801C100.641 39.3674 100.295 45.687 99.9928 51.8672C99.9064 53.7723 79.2169 51.8206 77.23 51.4953C74.9839 51.1236 70.7941 49.2185 68.548 50.2408C65.9564 51.4025 65.6541 55.8168 64.7902 58.3261Z" fill="#534741"/>
<path opacity="0.19" d="M34.641 254.141C28.6803 252.886 23.2377 249.773 17.9249 246.66C18.7888 243.871 19.6528 241.083 20.4734 238.295C44.8346 247.728 72.5217 246.892 96.3645 236.019C96.7533 240.433 97.0989 244.847 97.4876 249.262C91.0086 250.749 84.4 251.306 77.8346 251.91C68.8503 252.7 59.9091 253.49 50.9248 254.327C45.5256 254.791 39.997 255.256 34.641 254.141Z" fill="white"/>
<defs>
<linearGradient id="paint0_linear_0_1" x1="192.707" y1="498.227" x2="324.339" y2="498.227" gradientUnits="userSpaceOnUse">
<stop stop-color="#4D4D4D"/>
<stop offset="1"/>
</linearGradient>
<linearGradient id="paint1_linear_0_1" x1="192.707" y1="498.227" x2="324.339" y2="498.227" gradientUnits="userSpaceOnUse">
<stop/>
<stop offset="1"/>
</linearGradient>
<linearGradient id="paint2_linear_0_1" x1="379.614" y1="509.792" x2="499.892" y2="509.792" gradientUnits="userSpaceOnUse">
<stop stop-color="#4D4D4D"/>
<stop offset="1"/>
</linearGradient>
<linearGradient id="paint3_linear_0_1" x1="379.614" y1="509.792" x2="499.892" y2="509.792" gradientUnits="userSpaceOnUse">
<stop/>
<stop offset="1"/>
</linearGradient>
<linearGradient id="paint4_linear_0_1" x1="18.8749" y1="507.316" x2="134.204" y2="507.316" gradientUnits="userSpaceOnUse">
<stop stop-color="#4D4D4D"/>
<stop offset="1"/>
</linearGradient>
<linearGradient id="paint5_linear_0_1" x1="18.8749" y1="507.316" x2="134.204" y2="507.316" gradientUnits="userSpaceOnUse">
<stop/>
<stop offset="1"/>
</linearGradient>
</defs>
</svg>
