<svg width="443" height="636" viewBox="0 0 443 636" fill="none" xmlns="http://www.w3.org/2000/svg">
<path d="M409.734 415.164H269.555V619.605H409.734V415.164Z" fill="#B2B2B2"/>
<path d="M270.102 415.164H129.923V619.605H270.102V415.164Z" fill="#D1D1D1"/>
<path d="M196.659 167.243L190.684 277.137L162.584 357.723H213.172L239.447 288.29L247.658 209.381L196.659 167.243Z" fill="#F7EBE7"/>
<path d="M195.245 551.346L205.418 594.91L171.251 598.641L161.535 555.749L195.245 551.346Z" fill="#FCC9A7"/>
<path d="M207.471 590.968C206.604 588.62 203.867 587.782 201.997 589.291C198.348 592.268 191.779 595.916 182.063 595.035C171.981 594.113 168.195 588.662 166.736 584.721C165.96 582.667 163.816 581.619 161.9 582.499L100.729 610.758C97.0338 612.478 94.1142 615.664 92.6545 619.647C91.286 623.379 94.0231 627.404 97.8548 627.32L203.548 624.637C207.699 624.553 210.892 620.779 210.527 616.419L208.794 595.035C208.748 594.7 208.703 594.323 208.566 593.987L207.471 590.968Z" fill="#1F252A"/>
<path d="M194.652 340.7H115.326C115.326 340.7 67.0179 338.226 64.1441 374.662C61.2702 411.097 134.986 515.33 146.527 571.011L212.853 565.979L165.093 414.577L283.878 415.206C292.682 415.248 301.44 414.074 309.742 411.433C332.87 404.053 368.177 393.487 348.927 334.956L194.652 340.7Z" fill="#092330"/>
<path d="M255.87 551.514L272.018 603.589L237.851 607.32L222.159 555.916L255.87 551.514Z" fill="#FCC9A7"/>
<path d="M274.07 599.647C273.204 597.299 270.467 596.46 268.597 597.97C264.947 600.946 258.378 604.594 248.662 603.714C238.581 602.791 234.795 597.341 233.335 593.399C232.559 591.345 230.415 590.297 228.5 591.177L167.328 619.437C163.633 621.156 160.714 624.342 159.254 628.325C157.886 632.057 160.623 636.082 164.454 635.998L271.972 633.315C276.123 633.231 279.316 629.458 278.951 625.097L275.348 603.714C275.302 603.378 275.256 603.001 275.12 602.666L274.07 599.647Z" fill="#1F252A"/>
<path d="M289.443 124.057C291.222 125.65 370.823 144.308 370.823 144.308L353.808 185.859L266.772 179.821L289.443 124.057Z" fill="#F7EBE7"/>
<path d="M256.6 134.079C256.6 134.079 204.734 151.479 196.66 167.244C199.443 189.507 207.973 210.933 222.023 229.255C239.266 251.729 260.569 290.344 256.646 340.7H406.586C406.586 340.7 398.512 199.025 354.128 144.644L256.6 134.079Z" fill="#F7EBE7"/>
<path d="M273.614 156.551C288.348 153.784 297.836 140.577 294.826 127.034L286.022 87.4121L232.696 97.4329L241.5 137.055C244.511 150.598 258.88 159.319 273.614 156.551Z" fill="#FCC9A7"/>
<path d="M289.671 101.249C289.671 101.249 284.06 133.366 256.873 135.294C233.061 136.971 235.342 105.316 235.342 105.316L289.671 101.249Z" fill="#F4BE9A"/>
<path d="M259.017 117.684L263.715 116.678C287.299 111.647 301.987 90.0119 296.513 68.377L290.309 43.6814C284.835 22.0046 261.298 8.50378 237.76 13.5351L233.061 14.5414C209.477 19.5728 194.789 41.2077 200.263 62.8425L206.467 87.5382C211.941 109.215 235.479 122.716 259.017 117.684Z" fill="#FCC9A7"/>
<path d="M281.734 78.65C280.639 80.3691 279.59 82.9686 279.225 86.9098C278.814 91.8993 276.077 96.6371 271.516 99.4044C258.424 107.371 248.434 87.2033 229.093 90.7672C229.093 90.7672 221.52 91.8154 220.015 99.5721C218.51 107.287 207.972 93.786 205.646 84.5618C203.319 75.3377 202.133 130.222 249.757 125.568C249.757 125.568 273.797 124.855 289.991 102.339C291.77 99.8656 292.819 96.9725 292.91 93.9957C293.047 89.5932 292.362 82.9267 287.801 78.1469C286.204 76.3859 283.011 76.6375 281.734 78.65Z" fill="#1C2226"/>
<path d="M281.78 66.1969C281.78 66.1969 261.207 59.9496 264.674 32.319C264.674 32.319 213.583 76.7627 175.722 44.1427C175.722 44.1427 192.646 39.9918 199.625 29.3421C212.352 9.92941 248.936 -16.8207 278.222 14.1222C278.222 14.1222 313.848 9.04893 303.63 59.4884L281.78 66.1969Z" fill="#1C2226"/>
<path d="M281.779 66.1972C283.741 73.9119 292.134 78.7337 300.528 76.9727C308.967 75.1698 314.167 67.455 312.251 59.7402C310.289 52.0255 301.896 47.2038 293.502 48.9647C285.063 50.7676 279.818 58.4824 281.779 66.1972Z" fill="#FCC9A7"/>
<path d="M255.779 155.001L277.811 155.378L262.393 184.728L245.743 156.594L255.779 155.001Z" fill="#0C2C40"/>
<path d="M296.696 125.358L268.323 155.797L286.797 175.294L320.782 132.36C320.782 132.36 312.069 119.488 296.696 125.358Z" fill="#FFF7F3"/>
<path d="M255.779 155L239.448 171.939L227.953 145.524C227.953 145.524 230.963 133.659 240.36 135.923L255.779 155Z" fill="#FFF7F3"/>
<path d="M261.8 175.252C261.8 175.252 240.497 226.321 245.788 298.772L266.772 316.382L291.268 294.705L264.856 171.94L261.8 175.252Z" fill="#0C2C40"/>
<path d="M301.623 296.508L256.007 310.302L252.996 334.914L313.483 318.31L301.623 296.508Z" fill="#FCC9A7"/>
<path d="M262.803 326.57C262.803 340.951 250.122 352.649 234.43 352.649C218.783 352.649 206.056 340.993 206.056 326.57C206.056 312.189 218.738 300.491 234.43 300.491C250.076 300.491 262.803 312.147 262.803 326.57Z" fill="#FCC9A7"/>
<path d="M256.6 340.699H177.319C177.319 340.699 129.011 338.226 126.137 374.661C123.264 411.097 202.408 522.038 213.949 577.677L280.275 572.645L227.086 414.535L345.871 415.164C354.675 415.206 363.434 414.032 371.736 411.39C394.863 404.011 430.17 393.445 410.92 334.913L256.6 340.699Z" fill="#0C2C40"/>
<path d="M17.4329 211.855H154.51C159.026 211.855 162.903 214.748 163.861 218.815L189.68 330.092C190.957 335.543 186.396 340.7 180.329 340.7H40.971C36.4093 340.7 32.4864 337.723 31.6197 333.614L8.08164 222.337C6.89561 216.887 11.4116 211.855 17.4329 211.855Z" fill="#B2B2B2"/>
<path d="M9.54133 211.855H146.573C151.089 211.855 154.966 214.748 155.924 218.815L181.743 330.092C183.02 335.543 178.504 340.7 172.392 340.7H33.0794C28.5178 340.7 24.5948 337.723 23.7281 333.614L0.190036 222.337C-0.995989 216.887 3.51997 211.855 9.54133 211.855Z" fill="#D1D1D1"/>
<path d="M185.94 331.183H279.59C282.464 331.183 284.745 333.321 284.745 335.92C284.745 338.562 282.418 340.658 279.59 340.658H184.115L185.94 331.183Z" fill="#B2B2B2"/>
<path d="M94.3874 273.364C94.3874 280.953 87.7275 287.074 79.4709 287.074C71.2144 287.074 64.5544 280.911 64.5544 273.364C64.5544 265.775 71.26 259.653 79.4709 259.653C87.7275 259.653 94.3874 265.775 94.3874 273.364Z" fill="white"/>
<path d="M338.116 183.889L388.202 258.227L268.323 297.556L284.745 330.176C284.745 330.176 387.245 319.61 436.784 284.516C441.346 281.288 443.626 276.047 442.851 270.806C440.524 254.035 430.58 213.322 388.202 155.462C379.581 143.68 362.429 140.116 349.063 147.244C335.15 154.623 330.27 170.975 338.116 183.889Z" fill="#F7EBE7"/>
</svg>
